STARTFONT 2.1
FONT -sun-timmons-bold-r-normal--10-100-75-75-p-58-adobe-fontspecific
SIZE 10 75 75
FONTBOUNDINGBOX 12 12 -2 -2

STARTPROPERTIES 28
FOUNDRY "sun"
FAMILY_NAME "timmons"
WEIGHT_NAME "bold"
SLANT "r"
SETWIDTH_NAME "normal"
ADD_STYLE_NAME ""
PIXEL_SIZE 10
POINT_SIZE 100
RESOLUTION_X 75
RESOLUTION_Y 75
SPACING "p"
AVERAGE_WIDTH 58
CHARSET_REGISTRY "adobe"
CHARSET_ENCODING "fontspecific"
COPYRIGHT "© 1999 Sun Microsystems, Inc."
RAW_PIXELSIZE 1000
RAW_POINTSIZE 964
RAW_ASCENT 950
RAW_DESCENT 196
RAW_AVERAGE_WIDTH 5542
FACE_NAME "TimmonsBoldmonsB5"
_XMBDFED_INFO "Edited with xmbdfed 2.4."
WEIGHT 10
X_HEIGHT -1
QUAD_WIDTH 5
DEFAULT_CHAR 4
FONT_DESCENT 2
FONT_ASCENT 10
ENDPROPERTIES

CHARS 214

STARTCHAR char32
ENCODING 32
SWIDTH 25 0
DWIDTH 3 0
BBX 0 0 0 0
BITMAP
ENDCHAR

STARTCHAR char33
ENCODING 33
SWIDTH 25 0
DWIDTH 3 0
BBX 2 7 1 0
BITMAP
C0
C0
C0
40
40
C0
C0
ENDCHAR

STARTCHAR char34
ENCODING 34
SWIDTH 43 0
DWIDTH 5 0
BBX 4 3 0 4
BITMAP
F0
F0
A0
ENDCHAR

STARTCHAR char35
ENCODING 35
SWIDTH 51 0
DWIDTH 6 0
BBX 5 8 0 0
BITMAP
28
28
F8
50
50
F8
50
50
ENDCHAR

STARTCHAR char36
ENCODING 36
SWIDTH 60 0
DWIDTH 7 0
BBX 6 10 0 -1
BITMAP
30
30
D8
F8
F0
78
AC
E4
F8
20
ENDCHAR

STARTCHAR char37
ENCODING 37
SWIDTH 68 0
DWIDTH 8 0
BBX 8 7 0 0
BITMAP
EC
E8
BE
BF
7F
6F
26
ENDCHAR

STARTCHAR char38
ENCODING 38
SWIDTH 68 0
DWIDTH 8 0
BBX 7 7 0 0
BITMAP
7C
6C
76
54
DC
CC
74
ENDCHAR

STARTCHAR char39
ENCODING 39
SWIDTH 25 0
DWIDTH 3 0
BBX 2 4 0 4
BITMAP
40
80
C0
C0
ENDCHAR

STARTCHAR char40
ENCODING 40
SWIDTH 34 0
DWIDTH 4 0
BBX 3 10 0 -2
BITMAP
20
20
40
C0
C0
C0
C0
40
20
20
ENDCHAR

STARTCHAR char41
ENCODING 41
SWIDTH 34 0
DWIDTH 4 0
BBX 3 9 0 -1
BITMAP
80
40
40
60
60
60
60
40
40
ENDCHAR

STARTCHAR char42
ENCODING 42
SWIDTH 43 0
DWIDTH 5 0
BBX 4 4 0 4
BITMAP
20
60
F0
70
ENDCHAR

STARTCHAR char43
ENCODING 43
SWIDTH 60 0
DWIDTH 7 0
BBX 6 6 0 0
BITMAP
30
30
FC
30
30
30
ENDCHAR

STARTCHAR char44
ENCODING 44
SWIDTH 25 0
DWIDTH 3 0
BBX 2 4 0 -2
BITMAP
C0
C0
40
80
ENDCHAR

STARTCHAR char45
ENCODING 45
SWIDTH 34 0
DWIDTH 4 0
BBX 3 1 0 2
BITMAP
E0
ENDCHAR

STARTCHAR char46
ENCODING 46
SWIDTH 25 0
DWIDTH 3 0
BBX 2 2 0 0
BITMAP
C0
C0
ENDCHAR

STARTCHAR char47
ENCODING 47
SWIDTH 43 0
DWIDTH 5 0
BBX 4 7 0 0
BITMAP
10
20
20
40
40
40
80
ENDCHAR

STARTCHAR char48
ENCODING 48
SWIDTH 43 0
DWIDTH 5 0
BBX 5 7 0 0
BITMAP
70
D8
D8
D8
D8
D8
70
ENDCHAR

STARTCHAR char49
ENCODING 49
SWIDTH 43 0
DWIDTH 5 0
BBX 3 7 1 0
BITMAP
C0
C0
C0
C0
C0
C0
E0
ENDCHAR

STARTCHAR char50
ENCODING 50
SWIDTH 43 0
DWIDTH 5 0
BBX 5 7 0 0
BITMAP
70
B0
30
20
20
48
F0
ENDCHAR

STARTCHAR char51
ENCODING 51
SWIDTH 43 0
DWIDTH 5 0
BBX 5 7 0 0
BITMAP
70
10
20
38
18
18
F0
ENDCHAR

STARTCHAR char52
ENCODING 52
SWIDTH 43 0
DWIDTH 5 0
BBX 4 7 0 0
BITMAP
10
70
70
70
F0
30
30
ENDCHAR

STARTCHAR char53
ENCODING 53
SWIDTH 43 0
DWIDTH 5 0
BBX 5 7 0 0
BITMAP
78
40
E0
38
18
10
E0
ENDCHAR

STARTCHAR char54
ENCODING 54
SWIDTH 43 0
DWIDTH 5 0
BBX 5 7 0 0
BITMAP
20
40
F0
D8
D8
D8
70
ENDCHAR

STARTCHAR char55
ENCODING 55
SWIDTH 43 0
DWIDTH 5 0
BBX 5 7 0 0
BITMAP
F0
90
10
10
20
20
20
ENDCHAR

STARTCHAR char56
ENCODING 56
SWIDTH 43 0
DWIDTH 5 0
BBX 5 7 0 0
BITMAP
F8
D8
F0
70
98
D8
78
ENDCHAR

STARTCHAR char57
ENCODING 57
SWIDTH 43 0
DWIDTH 5 0
BBX 5 7 0 0
BITMAP
F0
D8
D8
F8
10
30
40
ENDCHAR

STARTCHAR char58
ENCODING 58
SWIDTH 25 0
DWIDTH 3 0
BBX 2 5 1 0
BITMAP
C0
C0
00
C0
C0
ENDCHAR

STARTCHAR char59
ENCODING 59
SWIDTH 25 0
DWIDTH 3 0
BBX 2 7 1 -2
BITMAP
C0
C0
00
C0
C0
40
80
ENDCHAR

STARTCHAR char60
ENCODING 60
SWIDTH 51 0
DWIDTH 6 0
BBX 6 5 0 0
BITMAP
18
60
C0
30
0C
ENDCHAR

STARTCHAR char61
ENCODING 61
SWIDTH 60 0
DWIDTH 7 0
BBX 7 3 0 2
BITMAP
FE
00
FE
ENDCHAR

STARTCHAR char62
ENCODING 62
SWIDTH 51 0
DWIDTH 6 0
BBX 6 5 0 0
BITMAP
60
10
0C
30
C0
ENDCHAR

STARTCHAR char63
ENCODING 63
SWIDTH 43 0
DWIDTH 5 0
BBX 5 7 0 0
BITMAP
F8
D8
18
20
60
60
70
ENDCHAR

STARTCHAR char64
ENCODING 64
SWIDTH 7 0
DWIDTH 11 0
BBX 9 8 1 0
BITMAP
1C00
2200
7B00
E580
E500
ED00
7E00
3C00
ENDCHAR

STARTCHAR char65
ENCODING 65
SWIDTH 60 0
DWIDTH 7 0
BBX 6 7 0 0
BITMAP
10
30
30
38
78
58
DC
ENDCHAR

STARTCHAR char66
ENCODING 66
SWIDTH 60 0
DWIDTH 7 0
BBX 6 7 0 0
BITMAP
FC
6C
6C
78
6C
6C
FC
ENDCHAR

STARTCHAR char67
ENCODING 67
SWIDTH 60 0
DWIDTH 7 0
BBX 7 8 0 0
BITMAP
04
7C
C2
C0
C0
C0
46
38
ENDCHAR

STARTCHAR char68
ENCODING 68
SWIDTH 68 0
DWIDTH 8 0
BBX 7 7 0 0
BITMAP
FC
66
66
66
66
64
F8
ENDCHAR

STARTCHAR char69
ENCODING 69
SWIDTH 60 0
DWIDTH 7 0
BBX 6 7 0 0
BITMAP
FC
6C
68
70
70
64
FC
ENDCHAR

STARTCHAR char70
ENCODING 70
SWIDTH 51 0
DWIDTH 6 0
BBX 6 7 0 0
BITMAP
FC
6C
68
70
50
40
E0
ENDCHAR

STARTCHAR char71
ENCODING 71
SWIDTH 68 0
DWIDTH 8 0
BBX 7 7 0 0
BITMAP
7E
42
C0
CE
C6
46
3E
ENDCHAR

STARTCHAR char72
ENCODING 72
SWIDTH 68 0
DWIDTH 8 0
BBX 8 7 0 0
BITMAP
6F
66
66
7E
66
66
E6
ENDCHAR

STARTCHAR char73
ENCODING 73
SWIDTH 34 0
DWIDTH 4 0
BBX 3 7 0 0
BITMAP
60
60
60
60
60
60
E0
ENDCHAR

STARTCHAR char74
ENCODING 74
SWIDTH 43 0
DWIDTH 5 0
BBX 6 7 0 0
BITMAP
3C
30
30
30
30
F0
60
ENDCHAR

STARTCHAR char75
ENCODING 75
SWIDTH 60 0
DWIDTH 7 0
BBX 8 7 0 0
BITMAP
6E
68
70
78
7C
6C
FF
ENDCHAR

STARTCHAR char76
ENCODING 76
SWIDTH 60 0
DWIDTH 7 0
BBX 6 7 0 0
BITMAP
70
60
60
60
64
64
FC
ENDCHAR

STARTCHAR char77
ENCODING 77
SWIDTH 86 0
DWIDTH 10 0
BBX 9 7 0 0
BITMAP
E380
E300
D700
D700
D700
DB00
8B80
ENDCHAR

STARTCHAR char78
ENCODING 78
SWIDTH 68 0
DWIDTH 8 0
BBX 7 7 0 0
BITMAP
E6
E6
D6
D6
CE
CE
C6
ENDCHAR

STARTCHAR char79
ENCODING 79
SWIDTH 77 0
DWIDTH 9 0
BBX 8 7 0 0
BITMAP
7E
C3
C3
C3
C3
46
3C
ENDCHAR

STARTCHAR char80
ENCODING 80
SWIDTH 60 0
DWIDTH 7 0
BBX 6 7 0 0
BITMAP
FC
6C
6C
70
40
40
F0
ENDCHAR

STARTCHAR char81
ENCODING 81
SWIDTH 77 0
DWIDTH 9 0
BBX 8 9 0 -2
BITMAP
7E
C3
C3
C3
C3
46
2C
18
07
ENDCHAR

STARTCHAR char82
ENCODING 82
SWIDTH 60 0
DWIDTH 7 0
BBX 7 7 0 0
BITMAP
F8
6C
6C
78
58
4C
EE
ENDCHAR

STARTCHAR char83
ENCODING 83
SWIDTH 60 0
DWIDTH 7 0
BBX 6 7 0 0
BITMAP
F8
C8
F0
78
8C
CC
F8
ENDCHAR

STARTCHAR char84
ENCODING 84
SWIDTH 60 0
DWIDTH 7 0
BBX 7 7 0 0
BITMAP
FE
B6
30
30
30
30
78
ENDCHAR

STARTCHAR char85
ENCODING 85
SWIDTH 68 0
DWIDTH 8 0
BBX 7 7 0 0
BITMAP
C4
C4
C4
C4
C6
C6
78
ENDCHAR

STARTCHAR char86
ENCODING 86
SWIDTH 60 0
DWIDTH 7 0
BBX 6 7 0 0
BITMAP
64
68
68
28
30
30
10
ENDCHAR

STARTCHAR char87
ENCODING 87
SWIDTH 86 0
DWIDTH 10 0
BBX 10 7 0 0
BITMAP
FEC0
6C80
6D00
2D00
3600
2200
2200
ENDCHAR

STARTCHAR char88
ENCODING 88
SWIDTH 60 0
DWIDTH 7 0
BBX 6 7 0 0
BITMAP
FC
78
20
30
50
58
9C
ENDCHAR

STARTCHAR char89
ENCODING 89
SWIDTH 60 0
DWIDTH 7 0
BBX 6 7 0 0
BITMAP
EC
68
68
30
30
30
70
ENDCHAR

STARTCHAR char90
ENCODING 90
SWIDTH 60 0
DWIDTH 7 0
BBX 7 7 0 0
BITMAP
F8
98
10
30
62
C2
FC
ENDCHAR

STARTCHAR char91
ENCODING 91
SWIDTH 25 0
DWIDTH 3 0
BBX 3 8 0 -1
BITMAP
E0
C0
C0
C0
C0
C0
C0
C0
ENDCHAR

STARTCHAR char92
ENCODING 92
SWIDTH 25 0
DWIDTH 3 0
BBX 3 8 0 0
BITMAP
80
80
40
40
40
40
20
20
ENDCHAR

STARTCHAR char93
ENCODING 93
SWIDTH 25 0
DWIDTH 3 0
BBX 3 9 0 -2
BITMAP
60
60
60
60
60
60
60
60
E0
ENDCHAR

STARTCHAR char94
ENCODING 94
SWIDTH 0 0
DWIDTH 0 0
BBX 4 1 -2 8
BITMAP
60
ENDCHAR

STARTCHAR char95
ENCODING 95
SWIDTH 51 0
DWIDTH 6 0
BBX 6 1 0 -2
BITMAP
FC
ENDCHAR

STARTCHAR char96
ENCODING 96
SWIDTH 0 0
DWIDTH 0 0
BBX 2 2 -2 5
BITMAP
40
40
ENDCHAR

STARTCHAR char97
ENCODING 97
SWIDTH 43 0
DWIDTH 5 0
BBX 5 5 0 0
BITMAP
70
F0
50
F0
D8
ENDCHAR

STARTCHAR char98
ENCODING 98
SWIDTH 43 0
DWIDTH 5 0
BBX 5 7 0 0
BITMAP
C0
C0
B0
D8
D8
D8
B0
ENDCHAR

STARTCHAR char99
ENCODING 99
SWIDTH 43 0
DWIDTH 5 0
BBX 4 5 0 0
BITMAP
70
D0
C0
C0
70
ENDCHAR

STARTCHAR char100
ENCODING 100
SWIDTH 43 0
DWIDTH 5 0
BBX 5 7 0 0
BITMAP
38
18
78
D8
D8
D8
78
ENDCHAR

STARTCHAR char101
ENCODING 101
SWIDTH 43 0
DWIDTH 5 0
BBX 5 5 0 0
BITMAP
70
D0
F0
C8
70
ENDCHAR

STARTCHAR char102
ENCODING 102
SWIDTH 25 0
DWIDTH 3 0
BBX 4 7 0 0
BITMAP
70
C0
E0
40
40
40
E0
ENDCHAR

STARTCHAR char103
ENCODING 103
SWIDTH 43 0
DWIDTH 5 0
BBX 5 7 0 -2
BITMAP
F8
F0
F0
70
70
90
F0
ENDCHAR

STARTCHAR char104
ENCODING 104
SWIDTH 51 0
DWIDTH 6 0
BBX 5 7 0 0
BITMAP
C0
C0
F8
D8
D8
D8
D8
ENDCHAR

STARTCHAR char105
ENCODING 105
SWIDTH 25 0
DWIDTH 3 0
BBX 3 7 0 0
BITMAP
C0
C0
C0
C0
C0
C0
E0
ENDCHAR

STARTCHAR char106
ENCODING 106
SWIDTH 25 0
DWIDTH 3 0
BBX 3 9 -1 -2
BITMAP
60
60
60
60
60
60
60
E0
C0
ENDCHAR

STARTCHAR char107
ENCODING 107
SWIDTH 43 0
DWIDTH 5 0
BBX 5 8 0 0
BITMAP
C0
C0
C0
D8
D0
F0
D0
D8
ENDCHAR

STARTCHAR char108
ENCODING 108
SWIDTH 25 0
DWIDTH 3 0
BBX 2 7 0 0
BITMAP
C0
C0
C0
C0
C0
C0
C0
ENDCHAR

STARTCHAR char109
ENCODING 109
SWIDTH 68 0
DWIDTH 8 0
BBX 8 5 0 0
BITMAP
F6
DE
DE
DE
DF
ENDCHAR

STARTCHAR char110
ENCODING 110
SWIDTH 51 0
DWIDTH 6 0
BBX 5 5 0 0
BITMAP
F0
D8
D8
D8
D8
ENDCHAR

STARTCHAR char111
ENCODING 111
SWIDTH 43 0
DWIDTH 5 0
BBX 5 5 0 0
BITMAP
70
D8
D8
D8
70
ENDCHAR

STARTCHAR char112
ENCODING 112
SWIDTH 43 0
DWIDTH 5 0
BBX 5 7 0 -2
BITMAP
F0
D8
D8
D8
F0
C0
E0
ENDCHAR

STARTCHAR char113
ENCODING 113
SWIDTH 43 0
DWIDTH 5 0
BBX 5 7 0 -2
BITMAP
68
D8
D8
D8
78
18
38
ENDCHAR

STARTCHAR char114
ENCODING 114
SWIDTH 34 0
DWIDTH 4 0
BBX 4 5 0 0
BITMAP
F0
C0
C0
C0
C0
ENDCHAR

STARTCHAR char115
ENCODING 115
SWIDTH 34 0
DWIDTH 4 0
BBX 4 5 0 0
BITMAP
E0
80
60
B0
E0
ENDCHAR

STARTCHAR char116
ENCODING 116
SWIDTH 25 0
DWIDTH 3 0
BBX 3 7 0 0
BITMAP
40
C0
E0
C0
C0
C0
E0
ENDCHAR

STARTCHAR char117
ENCODING 117
SWIDTH 51 0
DWIDTH 6 0
BBX 5 5 0 0
BITMAP
D8
D8
D8
D8
F8
ENDCHAR

STARTCHAR char118
ENCODING 118
SWIDTH 43 0
DWIDTH 5 0
BBX 5 5 0 0
BITMAP
F8
70
70
20
20
ENDCHAR

STARTCHAR char119
ENCODING 119
SWIDTH 60 0
DWIDTH 7 0
BBX 7 5 0 0
BITMAP
F6
54
7C
58
48
ENDCHAR

STARTCHAR char120
ENCODING 120
SWIDTH 43 0
DWIDTH 5 0
BBX 6 5 0 0
BITMAP
DC
70
20
70
F8
ENDCHAR

STARTCHAR char121
ENCODING 121
SWIDTH 43 0
DWIDTH 5 0
BBX 5 7 0 -2
BITMAP
D8
50
70
20
20
E0
C0
ENDCHAR

STARTCHAR char122
ENCODING 122
SWIDTH 34 0
DWIDTH 4 0
BBX 6 5 -1 0
BITMAP
F8
D0
30
64
78
ENDCHAR

STARTCHAR char123
ENCODING 123
SWIDTH 34 0
DWIDTH 4 0
BBX 3 9 0 -2
BITMAP
60
40
60
60
80
40
40
60
60
ENDCHAR

STARTCHAR char124
ENCODING 124
SWIDTH 25 0
DWIDTH 3 0
BBX 2 8 0 0
BITMAP
C0
C0
C0
C0
C0
C0
C0
C0
ENDCHAR

STARTCHAR char125
ENCODING 125
SWIDTH 34 0
DWIDTH 4 0
BBX 3 9 0 -2
BITMAP
C0
40
40
60
20
40
40
40
C0
ENDCHAR

STARTCHAR char126
ENCODING 126
SWIDTH 0 0
DWIDTH 0 0
BBX 4 1 -2 8
BITMAP
F0
ENDCHAR

STARTCHAR char128
ENCODING 128
SWIDTH 43 0
DWIDTH 5 0
BBX 7 7 0 0
BITMAP
3C
4C
C0
F8
C0
EE
70
ENDCHAR

STARTCHAR char130
ENCODING 130
SWIDTH 25 0
DWIDTH 3 0
BBX 2 4 0 -2
BITMAP
C0
C0
40
80
ENDCHAR

STARTCHAR char131
ENCODING 131
SWIDTH 0 0
DWIDTH 0 0
BBX 4 1 -2 8
BITMAP
60
ENDCHAR

STARTCHAR char132
ENCODING 132
SWIDTH 43 0
DWIDTH 5 0
BBX 4 4 0 -2
BITMAP
F0
F0
50
A0
ENDCHAR

STARTCHAR char133
ENCODING 133
SWIDTH 7 0
DWIDTH 11 0
BBX 9 1 1 0
BITMAP
D980
ENDCHAR

STARTCHAR char134
ENCODING 134
SWIDTH 43 0
DWIDTH 5 0
BBX 4 9 0 -2
BITMAP
20
F0
20
20
60
60
60
60
60
ENDCHAR

STARTCHAR char135
ENCODING 135
SWIDTH 86 0
DWIDTH 10 0
BBX 0 0 0 0
BITMAP
ENDCHAR

STARTCHAR char136
ENCODING 136
SWIDTH 0 0
DWIDTH 0 0
BBX 4 2 -2 5
BITMAP
60
90
ENDCHAR

STARTCHAR char137
ENCODING 137
SWIDTH 86 0
DWIDTH 10 0
BBX 0 0 0 0
BITMAP
ENDCHAR

STARTCHAR char138
ENCODING 138
SWIDTH 86 0
DWIDTH 10 0
BBX 0 0 0 0
BITMAP
ENDCHAR

STARTCHAR char139
ENCODING 139
SWIDTH 34 0
DWIDTH 4 0
BBX 2 4 1 1
BITMAP
40
80
80
40
ENDCHAR

STARTCHAR char140
ENCODING 140
SWIDTH 7 0
DWIDTH 11 0
BBX 10 7 0 0
BITMAP
7FC0
C5C0
C580
C780
C780
4640
3F80
ENDCHAR

STARTCHAR char141
ENCODING 141
SWIDTH 86 0
DWIDTH 10 0
BBX 0 0 0 0
BITMAP
ENDCHAR

STARTCHAR char143
ENCODING 143
SWIDTH 86 0
DWIDTH 10 0
BBX 0 0 0 0
BITMAP
ENDCHAR

STARTCHAR char145
ENCODING 145
SWIDTH 25 0
DWIDTH 3 0
BBX 2 3 0 4
BITMAP
C0
C0
C0
ENDCHAR

STARTCHAR char146
ENCODING 146
SWIDTH 25 0
DWIDTH 3 0
BBX 2 3 0 4
BITMAP
C0
C0
40
ENDCHAR

STARTCHAR char147
ENCODING 147
SWIDTH 43 0
DWIDTH 5 0
BBX 4 3 0 4
BITMAP
50
F0
F0
ENDCHAR

STARTCHAR char148
ENCODING 148
SWIDTH 43 0
DWIDTH 5 0
BBX 4 3 0 4
BITMAP
F0
F0
A0
ENDCHAR

STARTCHAR char149
ENCODING 149
SWIDTH 34 0
DWIDTH 4 0
BBX 3 3 0 2
BITMAP
E0
E0
E0
ENDCHAR

STARTCHAR char150
ENCODING 150
SWIDTH 43 0
DWIDTH 5 0
BBX 4 1 0 2
BITMAP
F0
ENDCHAR

STARTCHAR char151
ENCODING 151
SWIDTH 60 0
DWIDTH 7 0
BBX 7 1 0 3
BITMAP
FE
ENDCHAR

STARTCHAR char152
ENCODING 152
SWIDTH 0 0
DWIDTH 0 0
BBX 4 1 -2 6
BITMAP
70
ENDCHAR

STARTCHAR char153
ENCODING 153
SWIDTH 86 0
DWIDTH 10 0
BBX 10 4 0 3
BITMAP
F980
4D80
4E80
7FC0
ENDCHAR

STARTCHAR char154
ENCODING 154
SWIDTH 86 0
DWIDTH 10 0
BBX 0 0 0 0
BITMAP
ENDCHAR

STARTCHAR char155
ENCODING 155
SWIDTH 34 0
DWIDTH 4 0
BBX 2 4 1 1
BITMAP
80
80
C0
80
ENDCHAR

STARTCHAR char156
ENCODING 156
SWIDTH 68 0
DWIDTH 8 0
BBX 8 5 0 0
BITMAP
7C
DA
D6
DB
7C
ENDCHAR

STARTCHAR char157
ENCODING 157
SWIDTH 86 0
DWIDTH 10 0
BBX 0 0 0 0
BITMAP
ENDCHAR

STARTCHAR char159
ENCODING 159
SWIDTH 60 0
DWIDTH 7 0
BBX 6 10 0 0
BITMAP
58
58
00
EC
68
68
30
30
30
30
ENDCHAR

STARTCHAR char160
ENCODING 160
SWIDTH 25 0
DWIDTH 3 0
BBX 0 0 0 0
BITMAP
ENDCHAR

STARTCHAR char161
ENCODING 161
SWIDTH 25 0
DWIDTH 3 0
BBX 2 7 0 0
BITMAP
C0
C0
40
40
C0
C0
C0
ENDCHAR

STARTCHAR char162
ENCODING 162
SWIDTH 43 0
DWIDTH 5 0
BBX 4 7 0 -1
BITMAP
20
70
F0
E0
E0
60
20
ENDCHAR

STARTCHAR char163
ENCODING 163
SWIDTH 51 0
DWIDTH 6 0
BBX 6 8 -1 0
BITMAP
1C
3C
30
30
38
10
F4
FC
ENDCHAR

STARTCHAR char164
ENCODING 164
SWIDTH 0 0
DWIDTH 0 0
BBX 3 1 -1 8
BITMAP
40
ENDCHAR

STARTCHAR char165
ENCODING 165
SWIDTH 0 0
DWIDTH 0 0
BBX 4 1 -2 8
BITMAP
60
ENDCHAR

STARTCHAR char166
ENCODING 166
SWIDTH 86 0
DWIDTH 10 0
BBX 0 0 0 0
BITMAP
ENDCHAR

STARTCHAR char167
ENCODING 167
SWIDTH 43 0
DWIDTH 5 0
BBX 4 9 0 -2
BITMAP
70
C0
60
90
90
70
30
F0
60
ENDCHAR

STARTCHAR char168
ENCODING 168
SWIDTH 0 0
DWIDTH 0 0
BBX 4 2 -2 5
BITMAP
F0
F0
ENDCHAR

STARTCHAR char169
ENCODING 169
SWIDTH 68 0
DWIDTH 8 0
BBX 8 7 0 0
BITMAP
3C
5A
E7
E3
E3
7A
3C
ENDCHAR

STARTCHAR char170
ENCODING 170
SWIDTH 0 0
DWIDTH 0 0
BBX 4 2 -2 8
BITMAP
F0
F0
ENDCHAR

STARTCHAR char171
ENCODING 171
SWIDTH 43 0
DWIDTH 5 0
BBX 5 4 0 1
BITMAP
50
50
50
50
ENDCHAR

STARTCHAR char172
ENCODING 172
SWIDTH 68 0
DWIDTH 8 0
BBX 8 3 0 0
BITMAP
FF
03
03
ENDCHAR

STARTCHAR char173
ENCODING 173
SWIDTH 86 0
DWIDTH 10 0
BBX 0 0 0 0
BITMAP
ENDCHAR

STARTCHAR char174
ENCODING 174
SWIDTH 68 0
DWIDTH 8 0
BBX 8 7 0 0
BITMAP
38
7E
EF
FB
FB
7E
3C
ENDCHAR

STARTCHAR char175
ENCODING 175
SWIDTH 86 0
DWIDTH 10 0
BBX 0 0 0 0
BITMAP
ENDCHAR

STARTCHAR char176
ENCODING 176
SWIDTH 25 0
DWIDTH 3 0
BBX 5 3 -1 4
BITMAP
60
D8
70
ENDCHAR

STARTCHAR char177
ENCODING 177
SWIDTH 51 0
DWIDTH 6 0
BBX 5 7 0 0
BITMAP
30
30
30
F8
30
30
F8
ENDCHAR

STARTCHAR char178
ENCODING 178
SWIDTH 86 0
DWIDTH 10 0
BBX 0 0 0 0
BITMAP
ENDCHAR

STARTCHAR char179
ENCODING 179
SWIDTH 86 0
DWIDTH 10 0
BBX 0 0 0 0
BITMAP
ENDCHAR

STARTCHAR char180
ENCODING 180
SWIDTH 0 0
DWIDTH 0 0
BBX 3 2 -1 5
BITMAP
40
80
ENDCHAR

STARTCHAR char181
ENCODING 181
SWIDTH 86 0
DWIDTH 10 0
BBX 0 0 0 0
BITMAP
ENDCHAR

STARTCHAR char182
ENCODING 182
SWIDTH 60 0
DWIDTH 7 0
BBX 5 10 1 -2
BITMAP
78
F8
F8
F8
78
78
78
78
78
78
ENDCHAR

STARTCHAR char183
ENCODING 183
SWIDTH 17 0
DWIDTH 2 0
BBX 2 1 0 3
BITMAP
C0
ENDCHAR

STARTCHAR char184
ENCODING 184
SWIDTH 0 0
DWIDTH 0 0
BBX 3 2 -1 -2
BITMAP
40
C0
ENDCHAR

STARTCHAR char186
ENCODING 186
SWIDTH 0 0
DWIDTH 0 0
BBX 4 1 -2 8
BITMAP
F0
ENDCHAR

STARTCHAR char187
ENCODING 187
SWIDTH 43 0
DWIDTH 5 0
BBX 5 4 0 1
BITMAP
50
50
50
50
ENDCHAR

STARTCHAR char188
ENCODING 188
SWIDTH 86 0
DWIDTH 10 0
BBX 0 0 0 0
BITMAP
ENDCHAR

STARTCHAR char189
ENCODING 189
SWIDTH 86 0
DWIDTH 10 0
BBX 0 0 0 0
BITMAP
ENDCHAR

STARTCHAR char191
ENCODING 191
SWIDTH 43 0
DWIDTH 5 0
BBX 5 7 0 0
BITMAP
70
30
60
40
C0
D8
70
ENDCHAR

STARTCHAR char192
ENCODING 192
SWIDTH 60 0
DWIDTH 7 0
BBX 6 9 0 0
BITMAP
20
00
10
30
30
38
78
58
DC
ENDCHAR

STARTCHAR char193
ENCODING 193
SWIDTH 60 0
DWIDTH 7 0
BBX 6 9 0 0
BITMAP
10
00
10
30
30
38
78
58
DC
ENDCHAR

STARTCHAR char194
ENCODING 194
SWIDTH 60 0
DWIDTH 7 0
BBX 6 9 0 0
BITMAP
30
00
10
30
30
38
78
58
DC
ENDCHAR

STARTCHAR char195
ENCODING 195
SWIDTH 60 0
DWIDTH 7 0
BBX 6 9 0 0
BITMAP
70
00
10
30
30
38
78
58
DC
ENDCHAR

STARTCHAR char196
ENCODING 196
SWIDTH 60 0
DWIDTH 7 0
BBX 6 10 0 0
BITMAP
78
78
10
10
30
50
58
78
5C
DC
ENDCHAR

STARTCHAR char197
ENCODING 197
SWIDTH 60 0
DWIDTH 7 0
BBX 6 10 0 0
BITMAP
78
78
10
10
30
50
58
78
5C
DC
ENDCHAR

STARTCHAR char198
ENCODING 198
SWIDTH 86 0
DWIDTH 10 0
BBX 9 7 0 0
BITMAP
0F80
1C80
1D00
3F00
4F00
4C80
DF80
ENDCHAR

STARTCHAR char199
ENCODING 199
SWIDTH 60 0
DWIDTH 7 0
BBX 7 10 0 -2
BITMAP
04
7C
E2
C0
C0
C0
44
3C
10
38
ENDCHAR

STARTCHAR char200
ENCODING 200
SWIDTH 60 0
DWIDTH 7 0
BBX 6 9 0 0
BITMAP
30
00
FC
6C
68
70
70
64
FC
ENDCHAR

STARTCHAR char201
ENCODING 201
SWIDTH 60 0
DWIDTH 7 0
BBX 6 9 0 0
BITMAP
10
00
FC
6C
68
70
70
64
FC
ENDCHAR

STARTCHAR char202
ENCODING 202
SWIDTH 60 0
DWIDTH 7 0
BBX 6 9 0 0
BITMAP
38
00
FC
6C
68
70
70
64
FC
ENDCHAR

STARTCHAR char203
ENCODING 203
SWIDTH 60 0
DWIDTH 7 0
BBX 6 10 0 0
BITMAP
78
78
00
FC
74
70
70
70
64
FC
ENDCHAR

STARTCHAR char204
ENCODING 204
SWIDTH 34 0
DWIDTH 4 0
BBX 4 9 -1 0
BITMAP
60
00
70
60
60
60
60
60
70
ENDCHAR

STARTCHAR char205
ENCODING 205
SWIDTH 34 0
DWIDTH 4 0
BBX 4 9 0 0
BITMAP
60
00
60
60
60
60
60
60
E0
ENDCHAR

STARTCHAR char206
ENCODING 206
SWIDTH 34 0
DWIDTH 4 0
BBX 4 9 0 0
BITMAP
E0
00
60
60
60
60
60
60
E0
ENDCHAR

STARTCHAR char207
ENCODING 207
SWIDTH 34 0
DWIDTH 4 0
BBX 4 10 0 0
BITMAP
B0
B0
00
60
60
60
60
60
60
E0
ENDCHAR

STARTCHAR char208
ENCODING 208
SWIDTH 86 0
DWIDTH 10 0
BBX 0 0 0 0
BITMAP
ENDCHAR

STARTCHAR char209
ENCODING 209
SWIDTH 68 0
DWIDTH 8 0
BBX 7 9 0 0
BITMAP
38
00
E6
E4
D4
D4
CC
CC
C4
ENDCHAR

STARTCHAR char210
ENCODING 210
SWIDTH 77 0
DWIDTH 9 0
BBX 8 9 0 0
BITMAP
18
00
7E
C3
C3
C3
C3
46
3C
ENDCHAR

STARTCHAR char211
ENCODING 211
SWIDTH 77 0
DWIDTH 9 0
BBX 8 9 0 0
BITMAP
18
00
7E
C3
C3
C3
C3
46
3C
ENDCHAR

STARTCHAR char212
ENCODING 212
SWIDTH 77 0
DWIDTH 9 0
BBX 8 9 0 0
BITMAP
38
00
7E
C3
C3
C3
C3
46
3C
ENDCHAR

STARTCHAR char213
ENCODING 213
SWIDTH 77 0
DWIDTH 9 0
BBX 8 9 0 0
BITMAP
38
00
7E
C3
C3
C3
C3
46
3C
ENDCHAR

STARTCHAR char214
ENCODING 214
SWIDTH 77 0
DWIDTH 9 0
BBX 8 10 0 0
BITMAP
3C
3C
38
66
66
E7
E3
E6
66
3C
ENDCHAR

STARTCHAR char215
ENCODING 215
SWIDTH 86 0
DWIDTH 10 0
BBX 0 0 0 0
BITMAP
ENDCHAR

STARTCHAR char216
ENCODING 216
SWIDTH 77 0
DWIDTH 9 0
BBX 8 8 0 0
BITMAP
02
7F
C7
CB
D3
E3
46
BC
ENDCHAR

STARTCHAR char217
ENCODING 217
SWIDTH 68 0
DWIDTH 8 0
BBX 7 9 0 0
BITMAP
10
00
C4
C4
C6
C6
C6
C6
78
ENDCHAR

STARTCHAR char218
ENCODING 218
SWIDTH 68 0
DWIDTH 8 0
BBX 7 9 0 0
BITMAP
10
00
C4
C4
C6
C6
C6
C6
78
ENDCHAR

STARTCHAR char219
ENCODING 219
SWIDTH 68 0
DWIDTH 8 0
BBX 7 9 0 0
BITMAP
38
00
C4
C4
C6
C6
C6
C6
78
ENDCHAR

STARTCHAR char220
ENCODING 220
SWIDTH 68 0
DWIDTH 8 0
BBX 8 10 0 0
BITMAP
2C
2C
00
67
64
64
64
44
64
38
ENDCHAR

STARTCHAR char221
ENCODING 221
SWIDTH 86 0
DWIDTH 10 0
BBX 0 0 0 0
BITMAP
ENDCHAR

STARTCHAR char222
ENCODING 222
SWIDTH 86 0
DWIDTH 10 0
BBX 0 0 0 0
BITMAP
ENDCHAR

STARTCHAR char223
ENCODING 223
SWIDTH 43 0
DWIDTH 5 0
BBX 5 7 0 0
BITMAP
F8
D8
F0
D8
D8
D8
D0
ENDCHAR

STARTCHAR char224
ENCODING 224
SWIDTH 43 0
DWIDTH 5 0
BBX 5 7 0 0
BITMAP
40
40
70
F0
50
F0
D8
ENDCHAR

STARTCHAR char225
ENCODING 225
SWIDTH 43 0
DWIDTH 5 0
BBX 5 7 0 0
BITMAP
20
20
70
F0
50
F0
D8
ENDCHAR

STARTCHAR char226
ENCODING 226
SWIDTH 43 0
DWIDTH 5 0
BBX 5 7 0 0
BITMAP
60
90
70
F0
50
F0
D8
ENDCHAR

STARTCHAR char227
ENCODING 227
SWIDTH 43 0
DWIDTH 5 0
BBX 5 7 0 0
BITMAP
70
00
70
F0
50
F0
D8
ENDCHAR

STARTCHAR char228
ENCODING 228
SWIDTH 43 0
DWIDTH 5 0
BBX 5 7 0 0
BITMAP
F0
F0
70
D0
70
D0
F8
ENDCHAR

STARTCHAR char229
ENCODING 229
SWIDTH 43 0
DWIDTH 5 0
BBX 5 8 0 0
BITMAP
60
60
60
70
F0
50
F0
F8
ENDCHAR

STARTCHAR char230
ENCODING 230
SWIDTH 60 0
DWIDTH 7 0
BBX 7 5 0 0
BITMAP
7C
74
7C
F6
D8
ENDCHAR

STARTCHAR char231
ENCODING 231
SWIDTH 43 0
DWIDTH 5 0
BBX 4 7 0 -2
BITMAP
70
D0
C0
C0
70
20
70
ENDCHAR

STARTCHAR char232
ENCODING 232
SWIDTH 43 0
DWIDTH 5 0
BBX 5 7 0 0
BITMAP
40
20
70
D0
F0
C8
70
ENDCHAR

STARTCHAR char233
ENCODING 233
SWIDTH 43 0
DWIDTH 5 0
BBX 5 7 0 0
BITMAP
20
20
70
D0
F0
C8
70
ENDCHAR

STARTCHAR char234
ENCODING 234
SWIDTH 43 0
DWIDTH 5 0
BBX 5 7 0 0
BITMAP
60
90
70
D0
F0
C8
70
ENDCHAR

STARTCHAR char235
ENCODING 235
SWIDTH 43 0
DWIDTH 5 0
BBX 5 7 0 0
BITMAP
F0
B0
70
D0
F0
C8
70
ENDCHAR

STARTCHAR char236
ENCODING 236
SWIDTH 25 0
DWIDTH 3 0
BBX 3 7 0 0
BITMAP
80
40
C0
C0
C0
C0
E0
ENDCHAR

STARTCHAR char237
ENCODING 237
SWIDTH 25 0
DWIDTH 3 0
BBX 3 7 0 0
BITMAP
C0
80
C0
C0
C0
C0
E0
ENDCHAR

STARTCHAR char238
ENCODING 238
SWIDTH 25 0
DWIDTH 3 0
BBX 3 7 0 0
BITMAP
C0
A0
C0
C0
C0
C0
E0
ENDCHAR

STARTCHAR char239
ENCODING 239
SWIDTH 25 0
DWIDTH 3 0
BBX 4 7 -1 0
BITMAP
B0
F0
60
60
60
60
70
ENDCHAR

STARTCHAR char241
ENCODING 241
SWIDTH 51 0
DWIDTH 6 0
BBX 5 7 0 0
BITMAP
F0
00
F0
D8
D8
D8
D8
ENDCHAR

STARTCHAR char242
ENCODING 242
SWIDTH 43 0
DWIDTH 5 0
BBX 5 7 0 0
BITMAP
40
20
70
D8
D8
D8
70
ENDCHAR

STARTCHAR char243
ENCODING 243
SWIDTH 43 0
DWIDTH 5 0
BBX 5 7 0 0
BITMAP
20
40
70
D8
D8
D8
70
ENDCHAR

STARTCHAR char244
ENCODING 244
SWIDTH 43 0
DWIDTH 5 0
BBX 5 7 0 0
BITMAP
60
90
70
D8
D8
D8
70
ENDCHAR

STARTCHAR char245
ENCODING 245
SWIDTH 43 0
DWIDTH 5 0
BBX 5 7 0 0
BITMAP
70
00
70
D8
D8
D8
70
ENDCHAR

STARTCHAR char246
ENCODING 246
SWIDTH 43 0
DWIDTH 5 0
BBX 5 7 0 0
BITMAP
D8
B8
70
D8
D8
D8
70
ENDCHAR

STARTCHAR char247
ENCODING 247
SWIDTH 51 0
DWIDTH 6 0
BBX 5 4 0 1
BITMAP
30
00
F8
30
ENDCHAR

STARTCHAR char248
ENCODING 248
SWIDTH 43 0
DWIDTH 5 0
BBX 5 5 0 0
BITMAP
78
D8
F8
D8
F0
ENDCHAR

STARTCHAR char249
ENCODING 249
SWIDTH 51 0
DWIDTH 6 0
BBX 5 7 0 0
BITMAP
60
20
D8
D8
D8
D8
F8
ENDCHAR

STARTCHAR char250
ENCODING 250
SWIDTH 51 0
DWIDTH 6 0
BBX 5 7 0 0
BITMAP
30
40
D8
D8
D8
D8
F8
ENDCHAR

STARTCHAR char251
ENCODING 251
SWIDTH 51 0
DWIDTH 6 0
BBX 5 7 0 0
BITMAP
60
90
D8
D8
D8
D8
F8
ENDCHAR

STARTCHAR char252
ENCODING 252
SWIDTH 51 0
DWIDTH 6 0
BBX 5 7 0 0
BITMAP
D8
D8
F8
D8
D8
D8
F8
ENDCHAR

STARTCHAR char255
ENCODING 255
SWIDTH 43 0
DWIDTH 5 0
BBX 5 9 0 -2
BITMAP
F0
F0
F8
50
60
20
20
A0
C0
ENDCHAR
ENDFONT
